# xmcd
#
# Track frame offsets:
#	150
#	8584
#	16751
#	28124
#	33913
#	45370
#	56794
#	68531
#	79657
#	88587
#	98578
#	108701
#	119942
#	131260
#	143024
#	152245
#	161798
#	174607
#	184015
#	195934
#	207226
#	215005
#	227106
#	231786
#	242030
#	252243
#	264736
#	274902
#	286749
#	297273
#	308123
#	318551
#
# Disc length: 4302 seconds
#
# Revision: 0
# Processed by: cddbd v1.5.2PL0 Copyright (c) Steve Scherf et al.
# Submitted via: EasyCDDAExtractor 12.0.1.1
#
DISCID=c310cc20
DTITLE=Johnny Cash - Complete Recording Sessions [Cd 01] 1954-1956 Sessions
DYEAR=2005
DGENRE=Country
TTITLE0=Wide Open Road (Demo #1) (Demo Session, Late 1954)
TTITLE1=You're My Baby (Demo) (Demo Session, Late 1954)
TTITLE2=My Treasure (Demo) (Demo Session, Late 1954)
TTITLE3=My Treasure (Overdub) (Demo Late 1954Overdub 1961)
TTITLE4=Folsom Prison Blues (Demo #1) (Demo Session, March 22, 1955)
TTITLE5=Folsom Prison Blues (Demo #2) (Demo Session, March 22, 1955)
TTITLE6=Wide Open Road (Demo #2) (Demo Session, March 22, 1955)
TTITLE7=Wide Open Road (Demo #3) (Demo Session, March 22, 1955)
TTITLE8=My Two Timin' Woman (Demo) (Demo Session, March 22, 1955)
TTITLE9=Hey Porter (Demo) (Demo Session, March 22, 1955)
TTITLE10=Hey Porter (M) (Studio Session, May 1955)
TTITLE11=Cry, Cry, Cry (M) (Studio Session, May 1955)
TTITLE12=Wide Open Road (Demo) (Studio Session, May 1955)
TTITLE13=Port Of Lonely Hearts (Studio Session, 1955)
TTITLE14=I Couldn't Keep From Crying (Studio Session, 1955)
TTITLE15=New Mexico (Studio Session, 1955)
TTITLE16=Folsom Prison Blues (M) (Studio Session, July 30, 1955)
TTITLE17=Luther Played The Boogie (Studio Session, July 30, 1955)
TTITLE18=So Doggone Lonesome (M) (Studio Session, July 30, 1955)
TTITLE19=Mean Eyed Cat (M) (Studio Session, July 30, 1955)
TTITLE20=Rock 'n' Roll Ruby (Demo) (Radio Demo Session, Late 1955)
TTITLE21=I Walk The Line (Outtake) (Studio Session, April 2, 1956)
TTITLE22=Brakeman's Blues (Incomplete) (Studio Session, April 2, 1956)
TTITLE23=Get Rhythm (Mike Test) (Studio Session, April 2, 1956)
TTITLE24=Get Rhythm (Outtake) (Studio Session, April 2, 1956)
TTITLE25=I Walk The Line (M) (Studio Session, April 2, 1956)
TTITLE26=Get Rhythm (M) (Studio Session, April 2, 1956)
TTITLE27=Train Of Love (Alt.) (Studio Session, April 2, 1956)
TTITLE28=Train Of Love (Outtake) (Studio Session, August 8, 1956)
TTITLE29=Train Of Love (M) (Studio Session, August 8, 1956)
TTITLE30=There You Go (M) (Studio Session, August 8, 1956)
TTITLE31=One More Ride (Incomplete) (Studio Session, Oct. 1, 1956)
EXTD=
EXTT0=
EXTT1=
EXTT2=
EXTT3=
EXTT4=
EXTT5=
EXTT6=
EXTT7=
EXTT8=
EXTT9=
EXTT10=
EXTT11=
EXTT12=
EXTT13=
EXTT14=
EXTT15=
EXTT16=
EXTT17=
EXTT18=
EXTT19=
EXTT20=
EXTT21=
EXTT22=
EXTT23=
EXTT24=
EXTT25=
EXTT26=
EXTT27=
EXTT28=
EXTT29=
EXTT30=
EXTT31=
PLAYORDER=
